<?xml version="1.0" standalone="no"?>
<!DOCTYPE svg PUBLIC "-//W3C//DTD SVG 20010904//EN"
 "http://www.w3.org/TR/2001/REC-SVG-20010904/DTD/svg10.dtd">
<svg version="1.0" xmlns="http://www.w3.org/2000/svg"
 width="250.000000pt" height="86.000000pt" viewBox="0 0 250.000000 86.000000"
 preserveAspectRatio="xMidYMid meet">
<metadata>
Created by potrace 1.10, written by Peter Selinger 2001-2011
</metadata>
<g transform="translate(0.000000,86.000000) scale(0.100000,-0.100000)"
fill="#000000" stroke="none">
<path d="M331 773 c-72 -18 -107 -38 -167 -95 -76 -72 -108 -148 -108 -258 0
-116 28 -186 103 -260 86 -86 134 -105 261 -105 100 0 108 1 168 34 76 41 135
104 170 179 22 48 26 72 26 147 1 118 -30 190 -115 269 -93 86 -220 120 -338
89z m159 -42 c0 -5 -35 -23 -77 -41 -143 -58 -181 -78 -192 -98 -6 -12 -9 -81
-8 -176 l3 -157 57 -53 c53 -49 71 -86 49 -100 -13 -8 -89 36 -131 76 -21 20
-51 62 -67 94 -25 50 -29 71 -29 139 0 71 4 88 33 147 57 117 155 177 290 178
39 0 72 -4 72 -9z m78 -109 c2 -39 -1 -72 -5 -72 -104 -3 -316 0 -321 4 -3 4
-1 11 6 18 16 16 284 127 302 125 11 -2 16 -19 18 -75z m104 3 c132 -158 80
-408 -104 -499 -66 -33 -78 -33 -78 1 0 19 15 40 56 79 l57 52 0 129 c0 70 -1
135 -2 143 -1 8 1 45 5 82 7 75 14 76 66 13z m-107 -210 c0 -82 -3 -100 -15
-100 -12 0 -16 16 -18 75 -2 44 -8 78 -15 82 -7 4 -55 8 -107 8 -52 0 -100 -4
-107 -8 -7 -4 -13 -38 -15 -82 -2 -59 -6 -75 -18 -75 -12 0 -16 18 -18 89 -2
49 0 96 2 103 5 11 37 13 158 11 l153 -3 0 -100z m-60 -35 l0 -65 -95 0 -95 0
-2 55 c-4 83 -6 81 99 78 l93 -3 0 -65z m63 -107 c-3 -15 -20 -17 -158 -17
-138 0 -155 2 -158 17 -3 15 11 17 158 17 147 0 161 -2 158 -17z m-58 -58 c0
-12 -17 -15 -94 -15 -87 0 -116 7 -99 24 3 3 48 6 100 6 76 0 93 -3 93 -15z
m-79 -45 c25 -14 25 -56 -1 -70 -45 -24 -86 44 -42 69 21 13 20 13 43 1z"/>
<path d="M347 414 c-14 -14 -7 -35 11 -32 9 2 17 10 17 17 0 16 -18 25 -28 15z"/>
<path d="M445 411 c-8 -15 3 -31 21 -31 9 0 14 7 12 17 -4 20 -24 28 -33 14z"/>
<path d="M1742 708 c-15 -15 -16 -54 -2 -63 6 -3 10 -44 10 -91 l0 -84 -70 0
-70 0 40 65 c54 88 53 105 -4 105 -25 0 -48 5 -51 10 -3 6 -19 10 -35 10 -36
0 -56 -30 -40 -60 12 -22 59 -27 77 -9 6 6 18 9 26 7 12 -2 7 -17 -24 -68 -60
-100 -60 -100 76 -100 l115 0 0 104 c0 59 4 108 10 111 14 9 13 48 -2 63 -7 7
-19 12 -28 12 -9 0 -21 -5 -28 -12z m45 -42 c-4 -9 -11 -16 -17 -16 -17 0 -24
31 -9 41 18 11 34 -5 26 -25z m-207 -46 c0 -13 -7 -20 -20 -20 -13 0 -20 7
-20 20 0 13 7 20 20 20 13 0 20 -7 20 -20z"/>
<path d="M1102 698 c-17 -17 -15 -57 3 -64 12 -5 15 -24 15 -86 l0 -79 -32 3
c-30 3 -33 7 -58 83 -20 60 -31 81 -46 83 -16 2 -25 -14 -53 -90 -18 -51 -36
-99 -38 -105 -3 -9 4 -13 21 -13 19 0 26 5 26 20 0 17 7 20 39 20 31 0 41 -4
46 -20 5 -17 15 -20 72 -20 l66 0 -6 50 c-7 58 6 66 23 15 8 -23 18 -35 30
-35 14 0 21 10 26 35 10 54 27 43 22 -15 l-5 -50 68 0 c62 0 69 2 69 20 0 17
7 20 39 20 30 0 40 -4 44 -20 3 -14 14 -20 31 -20 24 0 26 2 15 21 -6 12 -24
58 -39 103 -21 60 -33 82 -48 84 -15 2 -23 -9 -42 -65 -32 -97 -37 -105 -67
-101 -26 3 -26 3 -24 86 2 82 2 83 -21 80 -17 -2 -27 -16 -43 -55 -11 -29 -23
-53 -26 -53 -4 0 -16 23 -27 51 -18 41 -19 54 -9 70 24 38 -38 80 -71 47z m51
-22 c9 -22 -18 -40 -33 -22 -6 9 -9 20 -5 26 9 15 32 12 38 -4z m-154 -153 c1
-7 -8 -13 -19 -13 -23 0 -23 0 -9 37 10 26 12 27 19 8 5 -11 9 -26 9 -32z
m445 25 c9 -35 8 -38 -15 -38 -15 0 -19 4 -15 16 3 9 6 22 6 30 0 22 17 16 24
-8z"/>
<path d="M1970 580 l0 -65 -38 62 c-25 43 -43 63 -57 63 -19 0 -20 -6 -17
-105 3 -98 5 -105 24 -105 18 0 19 5 16 60 -3 66 3 74 25 33 37 -72 53 -93 72
-93 19 0 20 5 16 85 l-3 85 36 0 36 0 0 -69 c0 -61 3 -72 22 -85 54 -38 116
-7 125 62 l6 42 -42 0 c-34 0 -41 -3 -41 -20 0 -13 7 -20 20 -20 18 0 19 -3
10 -21 -7 -13 -19 -19 -33 -17 -20 3 -22 9 -22 63 0 55 2 60 23 63 13 2 25 -3
28 -12 7 -18 54 -22 54 -6 0 15 -46 60 -62 60 -7 1 -55 2 -105 3 l-93 3 0 -66z"/>
<path d="M890 350 c0 -5 14 -10 30 -10 l30 0 0 -86 c0 -64 3 -85 13 -81 8 3
12 28 11 85 l-1 82 28 0 c16 0 29 5 29 10 0 6 -30 10 -70 10 -40 0 -70 -4 -70
-10z"/>
<path d="M1300 265 l0 -95 56 0 c38 0 54 4 52 12 -2 6 -21 12 -42 12 -36 1
-39 3 -41 34 -3 31 -2 32 36 32 22 0 39 5 39 10 0 6 -18 10 -39 10 -38 0 -40
2 -39 30 1 28 4 30 40 30 21 0 38 5 38 10 0 6 -22 10 -50 10 l-50 0 0 -95z"/>
<path d="M1698 330 c-27 -27 -30 -36 -25 -71 3 -22 13 -49 23 -60 19 -22 72
-34 104 -24 31 10 16 19 -32 20 -47 1 -68 23 -68 70 0 49 24 75 71 75 21 0 39
5 39 10 0 6 -18 10 -41 10 -32 0 -47 -6 -71 -30z"/>
<path d="M2090 265 c0 -78 3 -95 15 -95 11 0 15 12 15 45 l0 45 40 0 40 0 0
-45 c0 -33 4 -45 15 -45 12 0 15 17 15 95 0 78 -3 95 -15 95 -11 0 -15 -11
-15 -40 0 -40 0 -40 -40 -40 -40 0 -40 0 -40 40 0 29 -4 40 -15 40 -12 0 -15
-17 -15 -95z"/>
</g>
</svg>
