<?xml version="1.0" standalone="no"?>
<!DOCTYPE svg PUBLIC "-//W3C//DTD SVG 20010904//EN"
 "http://www.w3.org/TR/2001/REC-SVG-20010904/DTD/svg10.dtd">
<svg version="1.0" xmlns="http://www.w3.org/2000/svg"
 width="300.000000pt" height="293.000000pt" viewBox="0 0 300.000000 293.000000"
 preserveAspectRatio="xMidYMid meet">
<metadata>
Created by potrace 1.10, written by Peter Selinger 2001-2011
</metadata>
<g transform="translate(0.000000,293.000000) scale(0.100000,-0.100000)"
fill="#000000" stroke="none">
<path d="M1490 2923 c0 -10 58 -26 181 -47 79 -14 167 -33 194 -42 106 -35
258 -98 291 -120 19 -13 39 -24 44 -24 5 0 55 -34 112 -76 292 -217 485 -516
563 -874 23 -104 31 -371 15 -479 -82 -559 -458 -1006 -990 -1175 -125 -40
-173 -60 -177 -72 -10 -30 277 55 408 121 396 200 686 578 781 1018 32 150 32
436 1 593 -60 292 -188 530 -403 744 -208 209 -430 333 -716 401 -70 16 -304
41 -304 32z"/>
<path d="M1204 2905 c-293 -53 -556 -189 -772 -399 -137 -133 -271 -329 -331
-486 -64 -166 -117 -395 -84 -368 7 6 20 36 29 67 74 267 149 434 262 586 96
128 227 253 358 341 183 121 341 183 585 228 74 13 145 29 159 34 37 16 -117
14 -206 -3z"/>
<path d="M1910 2593 c-62 -23 -355 -139 -395 -158 -27 -12 -61 -26 -75 -30
-13 -4 -130 -50 -260 -103 -129 -52 -269 -108 -310 -123 -131 -51 -174 -127
-113 -199 14 -17 37 -36 51 -41 15 -6 263 -10 605 -9 563 0 581 1 612 20 60
37 65 62 65 314 0 253 -5 281 -62 316 -31 19 -85 25 -118 13z m118 -60 c22
-24 22 -29 22 -269 l0 -245 -25 -24 -24 -25 -593 0 c-629 1 -611 -1 -637 48
-14 26 0 76 22 85 7 3 188 76 402 163 833 335 785 320 833 267z"/>
<path d="M893 1900 c-62 -4 -76 -9 -102 -34 -17 -17 -36 -46 -41 -65 -12 -45
-13 -642 0 -696 13 -57 60 -95 119 -95 39 0 49 5 84 42 l40 42 16 -24 c9 -14
26 -35 39 -48 12 -13 22 -25 22 -27 0 -3 -55 -5 -121 -5 l-121 0 -39 -39 c-53
-52 -54 -98 -5 -147 l34 -34 123 0 c139 0 164 -7 120 -33 -60 -36 -66 -125
-10 -171 32 -27 27 -27 229 -28 78 0 88 -9 46 -39 -62 -44 -96 -106 -96 -174
0 -106 124 -211 223 -189 189 40 232 265 70 365 l-38 24 40 7 c22 4 85 7 140
7 78 1 106 5 125 18 40 27 49 45 50 92 0 37 -5 49 -34 76 -19 18 -32 35 -29
39 4 3 61 6 128 6 107 0 125 2 148 20 30 24 50 78 42 113 -8 32 -54 76 -91 86
l-29 9 36 15 c52 23 89 70 90 115 1 20 1 182 1 359 l1 322 -27 36 c-15 19 -35
39 -46 45 -19 10 -1004 19 -1137 10z m1148 -66 l24 -26 0 -353 0 -353 -24 -26
c-34 -36 -92 -36 -120 0 -20 25 -21 39 -21 286 0 270 -5 306 -45 322 -22 8
-838 8 -860 0 -40 -16 -45 -52 -45 -322 0 -247 -1 -261 -21 -286 -15 -19 -30
-26 -54 -26 -94 0 -95 4 -95 409 l0 339 26 31 26 31 592 0 593 0 24 -26z
m-971 -190 c0 -10 -63 -74 -72 -74 -13 0 -9 35 8 58 14 20 64 32 64 16z m774
-16 c8 -13 15 -43 14 -68 l-1 -45 -17 41 c-10 22 -29 50 -44 61 -14 11 -22 23
-19 27 14 14 53 5 67 -16z m-62 -45 c16 -15 18 -36 18 -262 0 -135 -4 -251 -8
-257 -20 -31 -54 -34 -377 -34 l-326 0 -24 25 -25 24 0 241 c0 227 1 241 20
260 19 19 33 20 362 20 304 0 343 -2 360 -17z m110 -530 c11 -12 33 -27 49
-33 51 -21 32 -30 -66 -30 -52 0 -95 4 -95 8 0 5 9 17 21 28 22 20 54 74 44
74 -4 0 -3 5 1 12 5 7 10 3 16 -13 5 -13 18 -34 30 -46z m148 -123 c24 -24 26
-67 4 -98 l-15 -22 -601 0 c-546 0 -603 2 -620 17 -24 22 -24 77 2 103 20 20
33 20 615 20 582 0 595 0 615 -20z m-259 -229 c17 -13 23 -29 23 -56 0 -65 3
-65 -379 -65 -329 0 -343 1 -360 20 -25 27 -22 80 6 102 19 16 51 18 354 18
310 0 334 -1 356 -19z m-256 -245 c92 -70 77 -214 -26 -267 -76 -38 -155 -15
-207 62 -20 28 -23 44 -20 89 5 66 27 101 83 130 52 28 123 21 170 -14z"/>
<path d="M1155 1435 c-52 -51 -15 -145 57 -145 38 0 88 48 88 85 0 16 -12 38
-29 56 -38 37 -82 39 -116 4z m89 -36 c26 -38 -14 -82 -54 -57 -26 17 -25 43
2 62 29 21 34 20 52 -5z"/>
<path d="M1585 1435 c-52 -51 -16 -145 54 -145 46 0 85 39 85 85 0 74 -88 112
-139 60z m76 -25 c25 -14 25 -56 -1 -70 -45 -24 -86 44 -42 69 21 13 20 13 43
1z"/>
<path d="M10 1228 c0 -50 44 -217 85 -323 122 -316 396 -615 708 -772 119 -59
407 -147 407 -123 0 16 -29 28 -145 65 -275 85 -505 231 -674 426 -170 196
-251 352 -326 622 -35 128 -55 166 -55 105z"/>
</g>
</svg>
